<?xml version="1.0" standalone="no"?>
<!DOCTYPE svg PUBLIC "-//W3C//DTD SVG 20010904//EN"
 "http://www.w3.org/TR/2001/REC-SVG-20010904/DTD/svg10.dtd">
<svg version="1.0" xmlns="http://www.w3.org/2000/svg"
 width="512.000000pt" height="512.000000pt" viewBox="0 0 512.000000 512.000000"
 preserveAspectRatio="xMidYMid meet">
<metadata>
Created by potrace 1.14, written by Peter Selinger 2001-2017
</metadata>
<g transform="translate(0.000000,512.000000) scale(0.100000,-0.100000)"
fill="#000000" stroke="none">
<path d="M2378 5115 c-1 -1 -39 -5 -82 -9 -44 -4 -82 -8 -85 -10 -3 -2 -31 -7
-61 -11 -188 -23 -481 -113 -683 -210 -672 -321 -1168 -908 -1371 -1620 -43
-151 -66 -278 -86 -465 -8 -81 -5 -463 5 -520 3 -19 13 -78 21 -130 134 -836
696 -1565 1476 -1916 168 -75 425 -156 572 -179 21 -4 47 -8 58 -10 11 -3 46
-7 77 -11 31 -3 77 -10 103 -14 49 -7 473 -5 518 4 14 2 45 7 70 10 494 69
957 281 1335 610 215 187 426 447 552 681 82 151 202 435 218 515 2 8 10 40
19 70 55 195 80 398 81 655 0 227 -10 339 -50 530 -180 875 -827 1607 -1675
1897 -87 30 -288 82 -350 92 -19 3 -46 8 -60 11 -14 3 -45 8 -70 11 -25 3 -56
8 -70 10 -27 6 -456 14 -462 9z m312 -1759 c96 -15 295 -94 314 -125 12 -19
66 -23 91 -7 24 16 26 14 85 -44 59 -59 60 -61 44 -85 -16 -25 -12 -79 7 -91
15 -9 75 -134 97 -201 27 -80 36 -149 35 -253 -1 -101 -7 -143 -35 -230 -93
-287 -318 -489 -608 -548 -90 -18 -225 -22 -290 -8 -14 3 -50 11 -80 18 -30 7
-106 38 -169 70 -62 32 -120 58 -129 58 -8 0 -24 -8 -34 -17 -18 -16 -22 -14
-79 43 l-60 60 18 31 17 31 -62 124 c-75 149 -101 259 -96 408 9 282 181 557
426 681 167 84 333 112 508 85z"/>
</g>
</svg>
